<?xml version="1.0" encoding="utf-8"?>
<!-- Generator: Adobe Illustrator 16.0.4, SVG Export Plug-In . SVG Version: 6.00 Build 0)  -->
<!DOCTYPE svg PUBLIC "-//W3C//DTD SVG 1.1//EN" "http://www.w3.org/Graphics/SVG/1.1/DTD/svg11.dtd">
<svg version="1.1" id="Layer_1" xmlns="http://www.w3.org/2000/svg" xmlns:xlink="http://www.w3.org/1999/xlink" x="0px" y="0px"
	 width="200px" height="200px" viewBox="152 152 200 200" enable-background="new 152 152 200 200" xml:space="preserve">
<path fill="#BCBEC0" d="M315.088,215.085c-9.838,0-19.088,3.832-26.045,10.789c-14.362,14.361-14.361,37.729,0,52.093
	c0.295,0.295,0.601,0.576,0.904,0.861c8.006,8.927,7.72,22.703-0.857,31.282c-4.3,4.3-10.016,6.667-16.096,6.667
	s-11.796-2.367-16.096-6.668c-4.299-4.299-6.667-10.014-6.667-16.095c0-6.08,2.368-11.797,6.667-16.096
	c2.862-2.861,6.374-4.883,10.239-5.905l-10.839-10.844c-3.427,1.742-6.579,4.027-9.351,6.8
	c-6.958,6.957-10.789,16.206-10.789,26.046c0,9.839,3.832,19.089,10.789,26.045c6.957,6.958,16.207,10.789,26.046,10.789
	s19.089-3.831,26.045-10.789c8.634-8.633,12.075-20.521,10.328-31.75c1.877,0.291,3.786,0.444,5.721,0.444
	c9.839,0,19.089-3.831,26.046-10.788c6.957-6.958,10.789-16.207,10.789-26.046c0-9.838-3.832-19.089-10.789-26.045
	S324.927,215.085,315.088,215.085z M337.852,251.919c-0.001,6.08-2.368,11.797-6.668,16.096s-10.016,6.667-16.096,6.667
	c-5.642,0-10.969-2.042-15.143-5.771c-0.296-0.317-0.596-0.633-0.905-0.942l-0.047,0.047l0,0
	c-8.876-8.876-8.876-23.317-0.001-32.192c4.3-4.299,10.016-6.667,16.096-6.667c6.079,0,11.796,2.368,16.096,6.667
	C335.483,240.124,337.852,245.839,337.852,251.919z"/>
<g>
	<path fill="#BCBEC0" d="M294.064,267.73c-9.839,0-19.089-3.831-26.046-10.789c-2.766-2.766-5.047-5.91-6.79-9.33l10.835-10.855
		c1.023,3.864,3.044,7.375,5.906,10.236c4.299,4.3,10.015,6.667,16.095,6.667s11.796-2.367,16.096-6.667
		c4.299-4.299,6.667-10.015,6.667-16.096c0-6.08-2.368-11.795-6.667-16.095c-4.3-4.299-10.016-6.667-16.096-6.667
		c-6.08,0-11.797,2.368-16.095,6.667c-14.363,14.361-37.73,14.361-52.093,0c-14.361-14.362-14.361-37.729,0-52.092
		c14.362-14.361,37.73-14.361,52.092,0c2.768,2.769,5.051,5.916,6.793,9.337l-10.839,10.849c-1.022-3.863-3.044-7.375-5.904-10.236
		c-8.875-8.875-23.317-8.875-32.191,0c-8.875,8.875-8.875,23.315,0,32.192c8.875,8.874,23.316,8.875,32.191,0
		c6.957-6.957,16.207-10.789,26.046-10.789l0,0c9.839,0,19.089,3.832,26.046,10.789s10.788,16.207,10.789,26.045
		c-0.001,9.839-3.832,19.088-10.789,26.045S303.903,267.73,294.064,267.73z"/>
</g>
<path fill="#BCBEC0" d="M230.897,172.944c-9.838,0-19.087,3.832-26.044,10.789c-8.647,8.647-12.086,20.561-10.319,31.807
	c-1.895-0.297-3.823-0.454-5.777-0.454c-9.838,0-19.088,3.832-26.045,10.788c-6.958,6.958-10.789,16.208-10.789,26.046
	c0,9.839,3.831,19.089,10.789,26.046c6.957,6.956,16.207,10.788,26.045,10.788c9.839,0,19.089-3.832,26.046-10.788
	c14.361-14.362,14.361-37.73,0-52.092l0,0c-8.875-8.875-8.875-23.316,0-32.191c4.299-4.299,10.016-6.667,16.095-6.667
	c6.081,0,11.796,2.368,16.096,6.667c4.299,4.299,6.667,10.015,6.667,16.095c0.001,6.08-2.368,11.796-6.667,16.096
	c-2.862,2.861-6.375,4.882-10.239,5.905l10.839,10.844c3.427-1.743,6.578-4.027,9.351-6.8c6.957-6.958,10.789-16.208,10.788-26.046
	c0-9.838-3.832-19.088-10.788-26.045C249.987,176.775,240.737,172.944,230.897,172.944z M204.853,268.016
	c-4.299,4.299-10.016,6.667-16.096,6.667c-6.08,0-11.796-2.368-16.095-6.667c-4.3-4.299-6.667-10.016-6.667-16.095
	c0-6.08,2.367-11.797,6.667-16.096c4.299-4.299,10.016-6.667,16.096-6.667s11.796,2.368,16.095,6.667
	C213.728,244.7,213.728,259.141,204.853,268.016z"/>
<g>
	<path fill="#BCBEC0" d="M209.781,236.109c9.839,0,19.089,3.832,26.046,10.788c2.767,2.767,5.047,5.91,6.79,9.331l-10.834,10.855
		c-1.024-3.864-3.044-7.376-5.905-10.236c-4.299-4.3-10.016-6.667-16.095-6.667c-6.081,0-11.797,2.368-16.096,6.667
		c-4.299,4.299-6.667,10.016-6.667,16.096c0,6.079,2.368,11.796,6.667,16.095c4.3,4.3,10.016,6.667,16.096,6.667
		c6.08,0.001,11.796-2.367,16.095-6.666c14.362-14.362,37.731-14.362,52.092,0c14.361,14.361,14.361,37.729,0,52.091
		c-14.362,14.362-37.73,14.362-52.092,0c-2.768-2.769-5.05-5.915-6.792-9.337l10.837-10.85c1.023,3.865,3.044,7.376,5.906,10.237
		c8.875,8.876,23.316,8.876,32.191,0c8.875-8.875,8.875-23.317,0-32.192c-8.875-8.874-23.316-8.875-32.192,0
		c-6.957,6.957-16.208,10.789-26.046,10.788c0,0.001,0,0,0,0.001c-9.838-0.001-19.088-3.832-26.045-10.789
		c-6.958-6.957-10.789-16.207-10.789-26.045c0-9.839,3.832-19.089,10.789-26.046C190.692,239.941,199.942,236.109,209.781,236.109z"
		/>
</g>
</svg>
